<mxfile host="app.diagrams.net" agent="Mozilla/5.0 (Windows NT 10.0; Win64; x64) AppleWebKit/537.36 (KHTML, like Gecko) Chrome/131.0.0.0 Safari/537.36" version="25.0.1">
  <diagram name="Page-1" id="e7e014a7-5840-1c2e-5031-d8a46d1fe8dd">
    <mxGraphModel dx="1216" dy="534" grid="1" gridSize="10" guides="1" tooltips="1" connect="1" arrows="1" fold="1" page="1" pageScale="1" pageWidth="1169" pageHeight="826" background="none" math="0" shadow="0">
      <root>
        <mxCell id="0" />
        <mxCell id="1" parent="0" />
        <mxCell id="lr7x4DGWLo-P_RPcCpUH-41" value="Select a free washing&#xa;machine slot" style="" parent="1" vertex="1">
          <mxGeometry x="370" y="150" width="130" height="50" as="geometry" />
        </mxCell>
        <mxCell id="lr7x4DGWLo-P_RPcCpUH-43" value="" style="ellipse;shape=startState;fillColor=#000000;strokeColor=#ff0000;" parent="1" vertex="1">
          <mxGeometry x="420" y="70" width="30" height="30" as="geometry" />
        </mxCell>
        <mxCell id="lr7x4DGWLo-P_RPcCpUH-47" value="" style="edgeStyle=elbowEdgeStyle;elbow=horizontal;verticalAlign=bottom;endArrow=open;endSize=8;strokeColor=#FF0000;endFill=1;rounded=0;exitX=0.5;exitY=1;exitDx=0;exitDy=0;entryX=0.5;entryY=0;entryDx=0;entryDy=0;" parent="1" source="lr7x4DGWLo-P_RPcCpUH-43" target="lr7x4DGWLo-P_RPcCpUH-41" edge="1">
          <mxGeometry x="100" y="40" as="geometry">
            <mxPoint x="434.47" y="140" as="targetPoint" />
            <mxPoint x="434.47" y="100" as="sourcePoint" />
          </mxGeometry>
        </mxCell>
        <mxCell id="5UPrhu1_acth-uXCBatg-3" value="" style="edgeStyle=elbowEdgeStyle;elbow=horizontal;verticalAlign=bottom;endArrow=open;endSize=8;strokeColor=#FF0000;endFill=1;rounded=0;exitX=0.5;exitY=1;exitDx=0;exitDy=0;entryX=0.5;entryY=0;entryDx=0;entryDy=0;" edge="1" parent="1" target="5UPrhu1_acth-uXCBatg-6">
          <mxGeometry x="100" y="40" as="geometry">
            <mxPoint x="434.80000000000007" y="264.04999999999995" as="targetPoint" />
            <mxPoint x="435.11" y="200" as="sourcePoint" />
            <Array as="points">
              <mxPoint x="435.11" y="230" />
            </Array>
          </mxGeometry>
        </mxCell>
        <mxCell id="5UPrhu1_acth-uXCBatg-6" value="Validate slot" style="" vertex="1" parent="1">
          <mxGeometry x="370" y="270" width="130" height="50" as="geometry" />
        </mxCell>
        <mxCell id="5UPrhu1_acth-uXCBatg-7" value="" style="rhombus;whiteSpace=wrap;html=1;" vertex="1" parent="1">
          <mxGeometry x="420" y="360" width="40" height="40" as="geometry" />
        </mxCell>
        <mxCell id="5UPrhu1_acth-uXCBatg-8" value="" style="edgeStyle=elbowEdgeStyle;elbow=horizontal;verticalAlign=bottom;endArrow=open;endSize=8;strokeColor=#FF0000;endFill=1;rounded=0;exitX=0.5;exitY=1;exitDx=0;exitDy=0;entryX=0.5;entryY=0;entryDx=0;entryDy=0;" edge="1" parent="1" target="5UPrhu1_acth-uXCBatg-7">
          <mxGeometry x="100" y="40" as="geometry">
            <mxPoint x="440" y="380" as="targetPoint" />
            <mxPoint x="439.71000000000004" y="320" as="sourcePoint" />
            <Array as="points">
              <mxPoint x="439.71000000000004" y="350" />
            </Array>
          </mxGeometry>
        </mxCell>
        <mxCell id="5UPrhu1_acth-uXCBatg-9" value="" style="edgeStyle=elbowEdgeStyle;elbow=horizontal;verticalAlign=bottom;endArrow=open;endSize=8;strokeColor=#FF0000;endFill=1;rounded=0;exitX=1;exitY=0.5;exitDx=0;exitDy=0;entryX=0.532;entryY=0.002;entryDx=0;entryDy=0;entryPerimeter=0;" edge="1" parent="1" source="5UPrhu1_acth-uXCBatg-7" target="5UPrhu1_acth-uXCBatg-14">
          <mxGeometry x="100" y="40" as="geometry">
            <mxPoint x="499.49" y="433" as="targetPoint" />
            <mxPoint x="499.20000000000005" y="393" as="sourcePoint" />
            <Array as="points">
              <mxPoint x="539" y="410" />
            </Array>
          </mxGeometry>
        </mxCell>
        <mxCell id="5UPrhu1_acth-uXCBatg-10" value="valid" style="text;html=1;align=center;verticalAlign=middle;resizable=0;points=[];autosize=1;strokeColor=none;fillColor=none;" vertex="1" parent="1">
          <mxGeometry x="480" y="358" width="50" height="30" as="geometry" />
        </mxCell>
        <mxCell id="5UPrhu1_acth-uXCBatg-11" value="" style="edgeStyle=elbowEdgeStyle;elbow=horizontal;verticalAlign=bottom;endArrow=open;endSize=8;strokeColor=#FF0000;endFill=1;rounded=0;exitX=0;exitY=0.5;exitDx=0;exitDy=0;entryX=0.458;entryY=0.02;entryDx=0;entryDy=0;entryPerimeter=0;" edge="1" parent="1" source="5UPrhu1_acth-uXCBatg-7" target="5UPrhu1_acth-uXCBatg-15">
          <mxGeometry x="100" y="40" as="geometry">
            <mxPoint x="350" y="430" as="targetPoint" />
            <mxPoint x="470" y="390" as="sourcePoint" />
            <Array as="points">
              <mxPoint x="350" y="380" />
            </Array>
          </mxGeometry>
        </mxCell>
        <mxCell id="5UPrhu1_acth-uXCBatg-13" value="invalid" style="text;html=1;align=center;verticalAlign=middle;resizable=0;points=[];autosize=1;strokeColor=none;fillColor=none;" vertex="1" parent="1">
          <mxGeometry x="350" y="358" width="60" height="30" as="geometry" />
        </mxCell>
        <mxCell id="5UPrhu1_acth-uXCBatg-14" value="Save new schedule" style="" vertex="1" parent="1">
          <mxGeometry x="470" y="440" width="130" height="50" as="geometry" />
        </mxCell>
        <mxCell id="5UPrhu1_acth-uXCBatg-15" value="Display an error &#xa;message" style="" vertex="1" parent="1">
          <mxGeometry x="290" y="440" width="130" height="50" as="geometry" />
        </mxCell>
        <mxCell id="5UPrhu1_acth-uXCBatg-16" value="" style="whiteSpace=wrap;strokeColor=#FF0000;fillColor=#FF0000;rotation=90;" vertex="1" parent="1">
          <mxGeometry x="457.5" y="557.5" width="7.5" height="120" as="geometry" />
        </mxCell>
        <mxCell id="5UPrhu1_acth-uXCBatg-20" value="" style="edgeStyle=elbowEdgeStyle;elbow=horizontal;verticalAlign=bottom;endArrow=open;endSize=8;strokeColor=#FF0000;endFill=1;rounded=0;exitX=0.5;exitY=1;exitDx=0;exitDy=0;entryX=0.126;entryY=0.142;entryDx=0;entryDy=0;entryPerimeter=0;" edge="1" parent="1" target="5UPrhu1_acth-uXCBatg-16">
          <mxGeometry x="100" y="40" as="geometry">
            <mxPoint x="500" y="610" as="targetPoint" />
            <mxPoint x="504.66" y="490" as="sourcePoint" />
            <Array as="points">
              <mxPoint x="504.66" y="520" />
            </Array>
          </mxGeometry>
        </mxCell>
        <mxCell id="5UPrhu1_acth-uXCBatg-22" value="" style="edgeStyle=elbowEdgeStyle;elbow=horizontal;verticalAlign=bottom;endArrow=open;endSize=8;strokeColor=#FF0000;endFill=1;rounded=0;exitX=0.905;exitY=1.019;exitDx=0;exitDy=0;entryX=0.057;entryY=0.937;entryDx=0;entryDy=0;entryPerimeter=0;exitPerimeter=0;" edge="1" parent="1" source="5UPrhu1_acth-uXCBatg-15" target="5UPrhu1_acth-uXCBatg-16">
          <mxGeometry x="100" y="40" as="geometry">
            <mxPoint x="390.34000000000003" y="625" as="targetPoint" />
            <mxPoint x="390.0000000000001" y="500" as="sourcePoint" />
            <Array as="points">
              <mxPoint x="408" y="550" />
            </Array>
          </mxGeometry>
        </mxCell>
        <mxCell id="5UPrhu1_acth-uXCBatg-23" value="Display washing &#xa;machine schedule" style="" vertex="1" parent="1">
          <mxGeometry x="396.25" y="677.5" width="130" height="50" as="geometry" />
        </mxCell>
        <mxCell id="5UPrhu1_acth-uXCBatg-24" value="" style="edgeStyle=elbowEdgeStyle;elbow=horizontal;verticalAlign=bottom;endArrow=open;endSize=8;strokeColor=#FF0000;endFill=1;rounded=0;exitX=1;exitY=0.5;exitDx=0;exitDy=0;entryX=0.5;entryY=0;entryDx=0;entryDy=0;" edge="1" parent="1" source="5UPrhu1_acth-uXCBatg-16" target="5UPrhu1_acth-uXCBatg-23">
          <mxGeometry x="100" y="40" as="geometry">
            <mxPoint x="514" y="625" as="targetPoint" />
            <mxPoint x="514.6600000000001" y="500" as="sourcePoint" />
            <Array as="points" />
          </mxGeometry>
        </mxCell>
        <mxCell id="5UPrhu1_acth-uXCBatg-25" value="" style="ellipse;shape=startState;fillColor=#000000;strokeColor=#ff0000;" vertex="1" parent="1">
          <mxGeometry x="446.25" y="810" width="30" height="30" as="geometry" />
        </mxCell>
        <mxCell id="5UPrhu1_acth-uXCBatg-26" value="" style="edgeStyle=elbowEdgeStyle;elbow=horizontal;verticalAlign=bottom;endArrow=open;endSize=8;strokeColor=#FF0000;endFill=1;rounded=0;entryX=0.5;entryY=0;entryDx=0;entryDy=0;" edge="1" parent="1" source="5UPrhu1_acth-uXCBatg-23" target="5UPrhu1_acth-uXCBatg-25">
          <mxGeometry x="100" y="40" as="geometry">
            <mxPoint x="460.66" y="783.5" as="targetPoint" />
            <mxPoint x="460.66" y="727.5" as="sourcePoint" />
            <Array as="points" />
          </mxGeometry>
        </mxCell>
      </root>
    </mxGraphModel>
  </diagram>
</mxfile>
